<svg width="15" height="14" viewBox="0 0 15 14" fill="none" xmlns="http://www.w3.org/2000/svg">
<path d="M7.45752 0C3.60241 0 0.466309 3.14005 0.466309 7C0.466309 10.86 3.60241 14 7.45752 14C11.3126 14 14.4487 10.86 14.4487 7C14.4487 3.14005 11.3126 0 7.45752 0ZM10.7824 10.6207C10.6688 10.7345 10.5197 10.7917 10.3706 10.7917C10.2214 10.7917 10.0722 10.7345 9.95868 10.6207L7.04564 7.7041C6.93608 7.59505 6.87495 7.44679 6.87495 7.2917V3.5C6.87495 3.17743 7.13589 2.9167 7.45752 2.9167C7.77915 2.9167 8.04008 3.17743 8.04008 3.5V7.0502L10.7824 9.7959C11.0102 10.024 11.0102 10.3927 10.7824 10.6207Z" fill="#3482C6"/>
</svg>