<svg width="15" height="14" viewBox="0 0 15 14" fill="none" xmlns="http://www.w3.org/2000/svg">
<path d="M13.3268 9.1894C12.4707 9.1894 11.6302 9.05534 10.8336 8.79178C10.4433 8.65849 9.96352 8.78077 9.72531 9.02573L8.15313 10.2141C6.32984 9.23956 5.20674 8.11541 4.24676 6.30354L5.39867 4.77039C5.69794 4.47114 5.80529 4.03401 5.67668 3.62385C5.41232 2.82213 5.27803 1.98093 5.27803 1.12343C5.27807 0.503964 4.77474 0 4.15609 0H1.58829C0.969638 0 0.466309 0.503964 0.466309 1.12339C0.466309 8.22365 6.23543 14 13.3268 14C13.9454 14 14.4487 13.496 14.4487 12.8766V10.3127C14.4487 9.69336 13.9454 9.1894 13.3268 9.1894Z" fill="#3482C6"/>
</svg>
