<svg width="11" height="14" viewBox="0 0 11 14" fill="none" xmlns="http://www.w3.org/2000/svg">
<path d="M6.04403 0.00291797C3.20446 -0.0928965 0.872559 2.18329 0.872559 5.00476C0.872559 8.20681 3.9416 10.5306 5.66179 13.8726C5.74913 14.0423 5.99309 14.0425 6.08073 13.8729C7.63689 10.8658 10.2966 8.84933 10.7895 5.95233C11.2998 2.95449 9.07953 0.105384 6.04403 0.00291797ZM5.87102 7.62626C4.42503 7.62626 3.25279 6.45252 3.25279 5.00476C3.25279 3.55699 4.42506 2.38326 5.87102 2.38326C7.317 2.38326 8.48927 3.55699 8.48927 5.00476C8.48927 6.45252 7.317 7.62626 5.87102 7.62626Z" fill="#3482C6"/>
</svg>
